<svg width="20" height="38" viewBox="0 0 20 38" fill="none" xmlns="http://www.w3.org/2000/svg">
<g clip-path="url(#clip0_1_1837)">
<path d="M18.7781 13.3793C17.9969 12.5982 16.9379 12.1588 15.8332 12.1574H13.9563V3.09492C13.9555 2.27439 13.6293 1.48766 13.0491 0.907419C12.4689 0.327177 11.6823 0.000827459 10.8617 0L9.13828 0C8.31788 0.000827114 7.53132 0.327069 6.95117 0.907143C6.37102 1.48722 6.04468 2.27374 6.04375 3.09414V12.1566H4.16875C3.06359 12.1575 2.00391 12.5968 1.22233 13.3781C0.440747 14.1595 0.00113797 15.2191 0 16.3242L0 31.259C0.000992067 32.0649 0.23575 32.8533 0.675816 33.5284C1.11588 34.2036 1.74236 34.7366 2.4793 35.0629C2.33552 35.2492 2.2428 35.4698 2.21028 35.7029C2.17777 35.936 2.20658 36.1736 2.29388 36.3922C2.38118 36.6107 2.52395 36.8028 2.70811 36.9493C2.89227 37.0959 3.11145 37.1919 3.34404 37.2279C3.57663 37.264 3.81459 37.2387 4.03445 37.1547C4.25431 37.0707 4.44847 36.9308 4.59779 36.7489C4.7471 36.567 4.8464 36.3492 4.88591 36.1172C4.92541 35.8852 4.90374 35.6469 4.82305 35.4258H15.1785C15.0977 35.647 15.0759 35.8854 15.1153 36.1176C15.1547 36.3497 15.254 36.5676 15.4034 36.7497C15.5527 36.9317 15.747 37.0717 15.9669 37.1558C16.1869 37.2399 16.425 37.2652 16.6577 37.2291C16.8904 37.1931 17.1097 37.097 17.294 36.9503C17.4782 36.8037 17.621 36.6115 17.7083 36.3928C17.7956 36.1741 17.8243 35.9364 17.7917 35.7032C17.7591 35.4699 17.6662 35.2493 17.5223 35.0629C18.2589 34.7364 18.8851 34.2033 19.3248 33.5281C19.7646 32.853 19.9991 32.0647 20 31.259V16.3242C19.9988 15.2195 19.5593 14.1604 18.7781 13.3793ZM9.13828 1.5625H10.8617C11.2678 1.56291 11.6572 1.7244 11.9444 2.01154C12.2316 2.29868 12.3932 2.68802 12.3938 3.09414V12.1566H7.60625V3.09414C7.60677 2.68802 7.76836 2.29868 8.05557 2.01154C8.34278 1.7244 8.73216 1.56291 9.13828 1.5625ZM18.3332 31.259C18.3332 31.922 18.0698 32.5579 17.601 33.0268C17.1321 33.4956 16.4962 33.759 15.8332 33.759H4.1668C3.50376 33.759 2.86787 33.4956 2.39903 33.0268C1.93019 32.5579 1.6668 31.922 1.6668 31.259V16.3242C1.6668 15.6612 1.93019 15.0253 2.39903 14.5565C2.86787 14.0876 3.50376 13.8242 4.1668 13.8242H15.8332C16.4962 13.8242 17.1321 14.0876 17.601 14.5565C18.0698 15.0253 18.3332 15.6612 18.3332 16.3242V31.259Z" fill="#8BA5D8"/>
<path d="M6.82509 15.9074C6.60415 15.9075 6.39228 15.9953 6.23605 16.1516C6.07981 16.3078 5.992 16.5197 5.99189 16.7406V30.4582C5.98949 30.5692 6.00927 30.6795 6.05007 30.7827C6.09088 30.8859 6.15188 30.9799 6.22951 31.0593C6.30713 31.1386 6.39982 31.2016 6.50212 31.2446C6.60443 31.2877 6.7143 31.3098 6.82529 31.3098C6.93628 31.3098 7.04615 31.2877 7.14845 31.2446C7.25076 31.2016 7.34345 31.1386 7.42107 31.0593C7.4987 30.9799 7.5597 30.8859 7.6005 30.7827C7.64131 30.6795 7.66109 30.5692 7.65868 30.4582V16.7406C7.65858 16.5196 7.57071 16.3077 7.41439 16.1514C7.25808 15.9952 7.04611 15.9074 6.82509 15.9074Z" fill="#8BA5D8"/>
<path d="M13.1751 15.9074C12.9541 15.9074 12.7421 15.9952 12.5858 16.1514C12.4295 16.3077 12.3416 16.5196 12.3415 16.7406V30.4582C12.3391 30.5692 12.3589 30.6795 12.3997 30.7827C12.4405 30.8859 12.5015 30.9799 12.5791 31.0593C12.6567 31.1386 12.7494 31.2016 12.8517 31.2446C12.954 31.2877 13.0639 31.3098 13.1749 31.3098C13.2859 31.3098 13.3958 31.2877 13.4981 31.2446C13.6004 31.2016 13.6931 31.1386 13.7707 31.0593C13.8483 30.9799 13.9093 30.8859 13.9501 30.7827C13.9909 30.6795 14.0107 30.5692 14.0083 30.4582V16.7406C14.0082 16.5197 13.9204 16.3078 13.7641 16.1516C13.6079 15.9953 13.396 15.9075 13.1751 15.9074Z" fill="#8BA5D8"/>
</g>
<defs>
<clipPath id="clip0_1_1837">
<rect width="20" height="37.2453" fill="white"/>
</clipPath>
</defs>
</svg>
