<svg width="20" height="20" viewBox="0 0 20 20" fill="none" xmlns="http://www.w3.org/2000/svg">
<g clip-path="url(#clip0_1_1836)">
<path d="M17.1094 5H15C15 3.67392 14.4732 2.40215 13.5355 1.46447C12.5979 0.526784 11.3261 0 10 0C8.67392 0 7.40215 0.526784 6.46447 1.46447C5.52678 2.40215 5 3.67392 5 5H2.89062C2.22758 5 1.5917 5.26339 1.12286 5.73223C0.654017 6.20107 0.390625 6.83696 0.390625 7.5L0 15.8332C0.00134384 16.9379 0.440776 17.997 1.22191 18.7781C2.00305 19.5592 3.06211 19.9987 4.1668 20H15.8332C16.9379 19.9987 17.997 19.5592 18.7781 18.7781C19.5592 17.997 19.9987 16.9379 20 15.8332L19.6094 7.5C19.6094 6.83696 19.346 6.20107 18.8771 5.73223C18.4083 5.26339 17.7724 5 17.1094 5ZM10 1.6668C10.4377 1.66675 10.8712 1.75293 11.2756 1.92042C11.68 2.08791 12.0475 2.33343 12.357 2.64295C12.6666 2.95248 12.9121 3.31995 13.0796 3.72438C13.2471 4.1288 13.3333 4.56226 13.3332 5H6.6668C6.66675 4.56226 6.75293 4.1288 6.92042 3.72438C7.08791 3.31995 7.33343 2.95248 7.64296 2.64295C7.95248 2.33343 8.31995 2.08791 8.72438 1.92042C9.1288 1.75293 9.56226 1.66675 10 1.6668ZM18.3332 15.8332C18.3332 16.4962 18.0698 17.1321 17.601 17.601C17.1321 18.0698 16.4962 18.3332 15.8332 18.3332H4.1668C3.50376 18.3332 2.86787 18.0698 2.39903 17.601C1.93019 17.1321 1.6668 16.4962 1.6668 15.8332L2.05742 7.5C2.05737 7.39057 2.07889 7.2822 2.12074 7.18109C2.1626 7.07997 2.22397 6.9881 2.30135 6.91072C2.37873 6.83334 2.4706 6.77197 2.57171 6.73012C2.67282 6.68826 2.78119 6.66675 2.89062 6.6668H5V8.3332C4.9976 8.44417 5.01738 8.55449 5.05818 8.6577C5.09898 8.76092 5.15999 8.85495 5.23761 8.93427C5.31524 9.0136 5.40792 9.07662 5.51023 9.11965C5.61254 9.16268 5.72241 9.18484 5.8334 9.18484C5.94439 9.18484 6.05426 9.16268 6.15656 9.11965C6.25887 9.07662 6.35156 9.0136 6.42918 8.93427C6.50681 8.85495 6.56781 8.76092 6.60862 8.6577C6.64942 8.55449 6.6692 8.44417 6.6668 8.3332V6.6668H13.3332V8.3332C13.3308 8.44417 13.3506 8.55449 13.3914 8.6577C13.4322 8.76092 13.4932 8.85495 13.5708 8.93427C13.6484 9.0136 13.7411 9.07662 13.8434 9.11965C13.9457 9.16268 14.0556 9.18484 14.1666 9.18484C14.2776 9.18484 14.3875 9.16268 14.4898 9.11965C14.5921 9.07662 14.6848 9.0136 14.7624 8.93427C14.84 8.85495 14.901 8.76092 14.9418 8.6577C14.9826 8.55449 15.0024 8.44417 15 8.3332V6.6668H17.1094C17.2188 6.66675 17.3272 6.68826 17.4283 6.73012C17.5294 6.77197 17.6213 6.83334 17.6987 6.91072C17.776 6.9881 17.8374 7.07997 17.8793 7.18109C17.9211 7.2822 17.9426 7.39057 17.9426 7.5L18.3332 15.8332Z" fill="#8BA5D8"/>
</g>
<defs>
<clipPath id="clip0_1_1836">
<rect width="20" height="20" fill="white"/>
</clipPath>
</defs>
</svg>
